<svg width="133" height="19" viewBox="0 0 133 19" fill="none" xmlns="http://www.w3.org/2000/svg">
<path d="M4.91341 12.4344L4.96 11.8054L4.44753 12.1315L4.91341 12.4344ZM5.65882 12.644L5.63553 12.6207L5.65882 12.644ZM6.17129 12.4344C6.17129 12.3256 6.148 12.248 6.10141 12.2014C6.05482 12.1548 6.00047 12.1238 5.93835 12.1082C5.87624 12.0772 5.80635 12.0616 5.72871 12.0616C5.66659 12.0461 5.61224 12.0151 5.56565 11.9685L5.47247 12.1315L6.17129 12.4344ZM5.65882 12.7838L5.68212 12.8071C5.77529 12.776 5.86071 12.7449 5.93835 12.7139C6.03153 12.6828 6.11694 12.6518 6.19459 12.6207H5.63553L5.65882 12.644H5.63553V12.7838H5.65882ZM6.00824 13.5292L5.98494 13.5525L5.93835 13.5059L5.70541 13.436C5.72094 13.4049 5.72871 13.3894 5.72871 13.3894C5.74424 13.3739 5.75977 13.3506 5.77529 13.3195C5.85294 13.3972 5.90729 13.4593 5.93835 13.5059L6.00824 13.5292ZM11.2727 14.4609L11.0631 14.2746L11.0864 14.2513H10.3875L10.3642 14.1814C10.4574 14.1348 10.6205 14.0727 10.8534 13.9951L8.73365 13.1798L7.84847 13.436C7.69318 13.0788 7.47577 12.8071 7.19624 12.6207C6.93224 12.4344 6.59835 12.38 6.19459 12.4576V12.6207H6.21788L6.19459 12.644C6.42753 12.6595 6.48965 12.7682 6.38094 12.9701L6.35765 12.9934L6.38094 12.9701C6.25671 12.9391 6.14024 12.9158 6.03153 12.9002C5.92282 12.8692 5.80635 12.8381 5.68212 12.8071H5.63553V12.7838H5.26282V12.6673C5.32494 12.6518 5.38706 12.644 5.44918 12.644C5.51129 12.644 5.57341 12.644 5.63553 12.644V12.6207L4.93671 12.4576C4.87459 12.6285 4.83577 12.776 4.82024 12.9002C4.80471 13.0245 4.85906 13.1875 4.98329 13.3894C5.10753 13.5758 5.13859 13.8165 5.07647 14.1115C5.02988 14.3911 4.99106 14.6628 4.96 14.9268C4.92894 15.2374 4.87459 15.5558 4.79694 15.8819C4.71929 16.208 4.64165 16.5496 4.564 16.9068L3.63224 17C3.32165 16.736 3.12753 16.4565 3.04988 16.1614C2.97224 15.8508 2.91788 15.5325 2.88682 15.2064C2.85576 14.7094 2.848 14.2202 2.86353 13.7388C2.89459 13.2419 2.99553 12.7449 3.16635 12.248L2.86353 11.8287C2.94118 11.8132 3.01106 11.8054 3.07318 11.8054C3.13529 11.8054 3.20518 11.7976 3.28282 11.7821C3.112 11.4405 2.91012 11.2308 2.67718 11.1532C2.44424 11.06 2.19576 11.0134 1.93176 11.0134C1.72988 11.0134 1.53576 11.0212 1.34941 11.0367C1.16306 11.0367 0.984471 11.0056 0.813647 10.9435C0.704941 10.7882 0.666118 10.6485 0.697176 10.5242C0.712706 10.3845 0.759294 10.2525 0.836941 10.1282C0.899059 10.004 0.961176 9.88753 1.02329 9.77882C1.08541 9.65459 1.10871 9.53035 1.09318 9.40612L2.70047 8.10165C2.80918 7.69788 2.84024 7.28635 2.79365 6.86706C2.76259 6.43223 2.73153 5.98965 2.70047 5.53929C2.70047 5.41506 2.69271 5.28306 2.67718 5.14329C2.66165 5.00353 2.63835 4.87153 2.60729 4.74729C2.54518 4.26588 2.52188 3.79223 2.53741 3.32635C2.55294 2.84494 2.70824 2.35576 3.00329 1.85882L3.67882 1.71906L4.33106 2.69741L4.07482 3.25647L4.42424 3.62918L4.00494 3.67576C4.09812 3.9087 4.13694 4.14165 4.12141 4.37459C4.12141 4.592 4.10588 4.81718 4.07482 5.05012C4.04377 5.26753 4.01271 5.4927 3.98165 5.72565C3.95059 5.94306 3.95835 6.16823 4.00494 6.40118L4.40094 6.09835H4.37765L5.58894 6.72729C5.80635 6.69623 6.04706 6.63412 6.31106 6.54094C6.57506 6.44776 6.83906 6.308 7.10306 6.12165C7.21177 6.02847 7.336 5.96635 7.47577 5.93529C7.63106 5.90423 7.77082 5.84988 7.89506 5.77223C8.01929 5.71012 8.15906 5.6247 8.31435 5.516C8.46965 5.39176 8.62494 5.25976 8.78024 5.12C8.93553 4.98023 9.08306 4.84047 9.22282 4.70071C9.36259 4.56094 9.47906 4.4367 9.57224 4.328C9.66541 4.21929 9.77412 4.14941 9.89835 4.11835C10.0226 4.07176 10.1468 4.04847 10.2711 4.04847C10.3953 4.03294 10.5273 4.02517 10.6671 4.02517C10.8068 4.00965 10.9388 3.97859 11.0631 3.932C11.1407 3.932 11.2261 3.97082 11.3193 4.04847C11.428 4.12612 11.4668 4.23482 11.4358 4.37459C11.4202 4.49882 11.3892 4.61529 11.3426 4.724C11.3115 4.8327 11.2805 4.94141 11.2494 5.05012L11.8551 5.12C11.7774 5.36847 11.6687 5.57035 11.5289 5.72565C11.3892 5.88094 11.2339 6.0207 11.0631 6.14494C10.8922 6.25365 10.7136 6.35459 10.5273 6.44776C10.3565 6.54094 10.1856 6.64188 10.0148 6.75059C9.87506 6.84376 9.74306 6.9447 9.61882 7.05341C9.51012 7.16212 9.39365 7.26306 9.26941 7.35623C9.12965 7.52706 8.97435 7.66682 8.80353 7.77553C8.63271 7.8687 8.43082 7.91529 8.19788 7.91529C7.79412 7.91529 7.468 7.96188 7.21953 8.05506C6.98659 8.14823 6.76141 8.37341 6.544 8.73059C6.45082 8.77718 6.34988 8.80047 6.24118 8.80047C6.13247 8.80047 6.02377 8.80823 5.91506 8.82376C5.80635 8.83929 5.70541 8.87812 5.61224 8.94023C5.53459 8.98682 5.47247 9.08 5.42588 9.21976L4.75035 9.01012L4.42424 9.77882L8.92 11.0367L8.66377 11.4094C9.08306 11.2541 9.51788 11.1765 9.96824 11.1765C10.3409 11.1765 10.7059 11.2386 11.0631 11.3628C11.4358 11.4871 11.7774 11.6656 12.088 11.8986C12.4141 12.116 12.7014 12.3722 12.9499 12.6673C13.1984 12.9624 13.3847 13.2885 13.5089 13.6456L12.6704 14.1115V14.7405C12.4374 14.6628 12.22 14.5541 12.0181 14.4144C11.8318 14.2591 11.6299 14.1814 11.4125 14.1814C11.3348 14.1814 11.2339 14.2047 11.1096 14.2513C11.1562 14.3289 11.2184 14.3911 11.296 14.4376L11.2727 14.4609ZM10.4574 7.496C10.4419 7.52706 10.4341 7.55812 10.4341 7.58918C10.4341 7.6047 10.4186 7.62023 10.3875 7.63576C10.3565 7.63576 10.3099 7.62023 10.2478 7.58918C10.2944 7.51153 10.3254 7.47271 10.3409 7.47271C10.3565 7.45718 10.372 7.45718 10.3875 7.47271C10.4031 7.48823 10.4264 7.496 10.4574 7.496ZM14.0447 12.0384L14.1379 12.1315C14.1068 12.1471 14.0835 12.1626 14.068 12.1781C14.0525 12.1936 14.0292 12.2014 13.9981 12.2014C13.9981 12.2014 13.9826 12.1859 13.9515 12.1548C13.9981 12.1082 14.0292 12.0694 14.0447 12.0384ZM8.75694 0.763999H8.36094V0.694116H8.75694V0.763999ZM9.03647 2.58094C9.03647 2.73623 9.02871 2.8527 9.01318 2.93035H8.98988C8.98988 2.94588 8.97435 2.95365 8.9433 2.95365C8.92777 2.95365 8.90447 2.95365 8.87341 2.95365C8.85788 2.89153 8.84235 2.83717 8.82682 2.79059C8.82682 2.72847 8.82682 2.65859 8.82682 2.58094H9.03647ZM10.0148 2.51106V2.11506H10.6205L10.0148 2.51106ZM11.296 2.11506V1.43953C11.4668 1.59482 11.5522 1.69576 11.5522 1.74235C11.5522 1.78894 11.4668 1.89765 11.296 2.06847V2.11506ZM10.8068 10.3379V10.0816H10.8534C10.8379 10.1127 10.8301 10.1438 10.8301 10.1748C10.8301 10.2059 10.8224 10.2602 10.8068 10.3379ZM6.38094 12.9701C6.39647 13.0167 6.40424 13.0555 6.40424 13.0866C6.41977 13.1021 6.41977 13.0866 6.40424 13.04L6.35765 12.9934L6.38094 12.9701ZM13.9049 12.6673C13.8894 12.6362 13.8816 12.6052 13.8816 12.5741H13.9282C13.9127 12.5896 13.9049 12.6207 13.9049 12.6673ZM13.5555 11.4327C13.5711 11.4172 13.5944 11.4094 13.6254 11.4094C13.6254 11.4405 13.6332 11.4715 13.6487 11.5026C13.6332 11.4871 13.6176 11.4871 13.6021 11.5026C13.6021 11.5026 13.5944 11.4948 13.5788 11.4793C13.5633 11.4793 13.5555 11.4638 13.5555 11.4327ZM4.49412 1.27647L4.58729 1.25317L4.564 1.32306L4.49412 1.27647ZM8.85012 1.16C8.86565 1.17553 8.87341 1.19106 8.87341 1.20659C8.87341 1.23765 8.85788 1.25317 8.82682 1.25317C8.82682 1.23765 8.81906 1.22988 8.80353 1.22988C8.80353 1.22988 8.80353 1.22212 8.80353 1.20659C8.80353 1.17553 8.81906 1.16 8.85012 1.16ZM5.356 14.6473V14.5774H5.40259L5.356 14.6473ZM9.40918 9.03341C9.40918 9.03341 9.39365 9.04894 9.36259 9.08C9.36259 9.03341 9.37035 8.99459 9.38588 8.96353C9.38588 8.99459 9.39365 9.01788 9.40918 9.03341ZM11.296 14.4376C11.3271 14.4687 11.3504 14.492 11.3659 14.5075C11.3814 14.5075 11.3659 14.492 11.3193 14.4609H11.2727L11.296 14.4376ZM9.64212 10.7805C9.65765 10.7805 9.66541 10.7805 9.66541 10.7805C9.66541 10.7649 9.67318 10.7572 9.68871 10.7572C9.67318 10.7572 9.66541 10.7727 9.66541 10.8038L9.64212 10.7805ZM9.66541 10.8038L9.61882 10.8271L9.64212 10.7805L9.66541 10.8038ZM9.26941 7.35623L9.316 7.37953H9.24612L9.26941 7.35623ZM4.37765 6.09835C4.37765 6.09835 4.36212 6.08282 4.33106 6.05176C4.34659 6.06729 4.35435 6.07506 4.35435 6.07506C4.36988 6.07506 4.38541 6.08282 4.40094 6.09835H4.37765ZM6.00824 13.5292C6.02377 13.5292 6.03153 13.5369 6.03153 13.5525C6.04706 13.5525 6.06259 13.5525 6.07812 13.5525H5.98494L6.00824 13.5292ZM11.296 2.11506H11.2494H11.296ZM22.9434 11.1299C22.6639 10.8969 22.4154 10.7028 22.198 10.5475C21.9961 10.3767 21.8175 10.1981 21.6622 10.0118C21.0566 9.25082 20.4199 8.52871 19.7521 7.84541C19.0844 7.16212 18.339 6.5487 17.5159 6.00518C16.9568 5.648 16.4677 5.2287 16.0484 4.74729C15.6446 4.26588 15.2175 3.79223 14.7672 3.32635C14.6119 3.17106 14.4644 3.01576 14.3246 2.86047C14.2004 2.70517 14.0606 2.54212 13.9053 2.37129L14.1615 0.694116C14.8604 0.802822 15.4738 1.01247 16.0018 1.32306C16.5298 1.61812 16.9258 2.11506 17.1898 2.81388C17.3451 3.20212 17.547 3.52047 17.7954 3.76894C18.3234 4.26588 18.8592 4.75506 19.4027 5.23647C19.9462 5.71788 20.482 6.20706 21.01 6.704C21.3672 7.04565 21.7166 7.38729 22.0582 7.72894C22.4154 8.05506 22.8192 8.31906 23.2695 8.52094C23.3938 8.58306 23.4947 8.684 23.5724 8.82376C23.6655 8.948 23.7742 9.08776 23.8985 9.24306C24.2246 8.79271 24.543 8.34235 24.8535 7.892C25.1797 7.44165 25.498 6.98353 25.8086 6.51765C25.9173 6.34682 26.0105 6.176 26.0881 6.00518C26.1813 5.81882 26.2745 5.64023 26.3677 5.46941C26.4608 5.28306 26.5695 5.12 26.6938 4.98023C26.8335 4.82494 27.0044 4.69294 27.2062 4.58423C27.3305 4.50659 27.4237 4.35906 27.4858 4.14165C27.5634 3.92423 27.6411 3.73012 27.7187 3.55929C27.843 3.27976 27.9982 3.04682 28.1846 2.86047C28.3865 2.65859 28.6427 2.55765 28.9533 2.55765C29.4192 2.55765 29.7608 2.69741 29.9782 2.97694C30.1957 3.24094 30.3432 3.59035 30.4208 4.02517C30.4364 4.13388 30.4364 4.25035 30.4208 4.37459C30.4053 4.49882 30.3975 4.64635 30.3975 4.81718L28.3477 5.56259L28.8601 5.95859C28.8601 6.19153 28.7825 6.33906 28.6272 6.40118C28.4874 6.46329 28.3244 6.50988 28.138 6.54094C27.9672 6.55647 27.8119 6.60306 27.6721 6.6807C27.5324 6.75835 27.4625 6.93694 27.4625 7.21647L27.8585 8.12494L26.5307 8.35788C26.4997 8.28023 26.4531 8.19482 26.391 8.10165C26.3444 7.99294 26.29 7.88423 26.2279 7.77553C26.026 8.03953 25.9173 8.31129 25.9018 8.59082C25.8862 8.85482 25.9018 9.13435 25.9484 9.42941C26.0105 9.70894 26.0726 9.99623 26.1347 10.2913C26.2124 10.5708 26.2279 10.8659 26.1813 11.1765L25.599 10.7805C25.4126 10.9358 25.3272 11.1221 25.3427 11.3395C25.3582 11.5414 25.3893 11.7511 25.4359 11.9685C25.4825 12.1704 25.498 12.3722 25.4825 12.5741C25.4825 12.7605 25.366 12.9313 25.1331 13.0866L24.807 12.6207L24.411 13.7854L23.7587 13.3428L23.223 14.2746C23.3006 14.3988 23.3782 14.5231 23.4559 14.6473C23.5335 14.7715 23.6112 14.8958 23.6888 15.02L23.1298 17L22.5707 16.1847L21.8253 16.7438C21.7477 16.6351 21.6778 16.5419 21.6157 16.4642C21.5691 16.3711 21.507 16.2701 21.4293 16.1614L21.01 16.5108C20.979 16.4953 20.9401 16.4875 20.8935 16.4875C20.847 16.4875 20.8081 16.472 20.7771 16.4409C20.6062 16.3167 20.4898 16.1614 20.4277 15.9751C20.3655 15.7887 20.3811 15.6024 20.4742 15.416C20.6606 15.0122 20.8547 14.6085 21.0566 14.2047C21.2585 13.8009 21.4681 13.4049 21.6855 13.0167C21.8874 12.6751 22.0971 12.3567 22.3145 12.0616C22.5319 11.7511 22.7415 11.4405 22.9434 11.1299ZM38.2104 7.42612L38.816 7.37953L38.7927 7.21647L38.2104 7.42612ZM38.024 7.496L37.8842 3.20988C37.9929 3.13223 38.1094 3.03906 38.2336 2.93035C38.3734 2.82165 38.552 2.68188 38.7694 2.51106C38.5054 2.43341 38.2725 2.36353 38.0706 2.30141C37.8842 2.23929 37.7056 2.18494 37.5348 2.13835C37.5659 2.0607 37.5736 1.99082 37.5581 1.9287C37.5581 1.86659 37.5736 1.82776 37.6047 1.81223C37.9153 1.71906 38.2026 1.67247 38.4666 1.67247C39.1965 1.67247 39.8099 2.02188 40.3068 2.7207C40.3379 2.75176 40.3767 2.79059 40.4233 2.83717C40.4699 2.88376 40.5398 2.95365 40.6329 3.04682L41.8209 2.51106L40.8659 2.16165C40.9435 2.05294 41.0056 1.94423 41.0522 1.83553C41.1144 1.71129 41.1842 1.64141 41.2619 1.62588C41.8054 1.5327 42.3489 1.44729 42.8925 1.36965C43.436 1.292 43.9795 1.24541 44.5231 1.22988C44.8958 1.21435 45.2607 1.26094 45.6179 1.36965C45.9751 1.47835 46.2468 1.69576 46.4332 2.02188L46.3167 3.65247L44.4765 4.3047L40.3534 3.39623C39.5769 5.60141 39.4294 7.33294 39.9108 8.59082C39.6158 9.19647 39.4372 9.78659 39.3751 10.3612C39.3129 10.9358 39.3362 11.5026 39.4449 12.0616C39.5536 12.6207 39.7322 13.172 39.9807 13.7155C40.2292 14.2435 40.5009 14.7715 40.796 15.2995C40.5475 15.5946 40.3068 15.8896 40.0739 16.1847C39.8565 16.4642 39.6158 16.7593 39.3518 17.0699L37.6513 15.8586C37.3718 15.3151 37.2009 14.7948 37.1388 14.2979C37.0922 13.7854 37.1155 13.2962 37.2087 12.8304C37.3174 12.3489 37.4882 11.8831 37.7212 11.4327C37.9696 10.9668 38.2492 10.5087 38.5598 10.0584C38.3889 9.91859 38.2647 9.83318 38.1871 9.80212C38.1249 9.77106 38.0473 9.74776 37.9541 9.73223C37.8765 9.70118 37.76 9.67012 37.6047 9.63906C37.6824 9.26635 37.7522 8.90918 37.8144 8.56753C37.892 8.21035 37.9696 7.85318 38.0473 7.496H38.024ZM38.7228 10.9901L38.6995 10.8969L38.5831 10.9668L38.7228 10.9901ZM35.2753 2.25482C35.2598 2.51882 35.1899 2.73623 35.0656 2.90706C34.9569 3.06235 34.8172 3.19435 34.6464 3.30306C34.4911 3.41176 34.3202 3.5127 34.1339 3.60588C33.9631 3.69906 33.8 3.80776 33.6447 3.932L32.876 3.1167L32.6198 3.81553C32.48 3.87765 32.3402 3.9087 32.2005 3.9087C32.0607 3.9087 31.9442 3.87765 31.8511 3.81553C31.7579 3.75341 31.6647 3.67576 31.5715 3.58259C31.4939 3.48941 31.4162 3.39623 31.3386 3.30306C31.2609 3.20988 31.1755 3.13223 31.0824 3.07012C30.9581 2.57317 31.0047 2.18494 31.2221 1.90541C31.4551 1.62588 31.7501 1.37741 32.1073 1.16C32.48 1.25318 32.8682 1.29976 33.272 1.29976C33.6758 1.29976 34.0795 1.30753 34.4833 1.32306C34.8871 1.33859 35.2986 1.38517 35.7179 1.46282C36.1527 1.52494 36.5798 1.67247 36.9991 1.90541L35.2753 2.25482ZM57.5388 9.476L57.3292 9.94188C57.3913 9.94188 57.3913 10.0739 57.3292 10.3379C57.2826 10.6019 57.2049 10.8969 57.0962 11.2231C56.9875 11.5492 56.8633 11.852 56.7235 12.1315C56.5993 12.4111 56.4906 12.5664 56.3974 12.5974V11.2929L53.1595 11.5492C53.0819 11.5181 52.9809 11.4871 52.8567 11.456C52.748 11.4094 52.6238 11.3861 52.484 11.3861C52.2511 11.3861 52.0259 11.4405 51.8085 11.5492L51.8551 11.9219L51.2028 12.2014C51.0475 11.9374 50.8612 11.7511 50.6438 11.6424C50.4264 11.5336 50.1857 11.5026 49.9217 11.5492L48.3144 12.3412L47.2428 12.0849L46.8002 11.5725C46.7847 11.4327 46.7692 11.2541 46.7537 11.0367C46.7381 10.8038 46.7304 10.5786 46.7304 10.3612C46.7459 10.1282 46.7692 9.91859 46.8002 9.73223C46.8468 9.54588 46.9089 9.42165 46.9866 9.35953C47.1108 9.28188 47.2506 9.21976 47.4059 9.17318C47.5612 9.12659 47.7087 9.10329 47.8485 9.10329C48.3144 9.10329 48.7802 9.12659 49.2461 9.17318C49.7275 9.20423 50.2012 9.25082 50.6671 9.31294C50.7447 9.31294 50.8301 9.31294 50.9233 9.31294C51.0165 9.29741 51.1019 9.28188 51.1795 9.26635C51.2572 9.25082 51.3426 9.23529 51.4358 9.21976C51.5289 9.20423 51.6144 9.20423 51.692 9.21976C52.3132 9.29741 52.9344 9.36729 53.5555 9.42941C54.1767 9.49153 54.7979 9.55365 55.4191 9.61576C55.5433 9.63129 55.6675 9.63129 55.7918 9.61576C55.9315 9.60023 56.0635 9.58471 56.1878 9.56918L57.5388 9.476ZM65.2579 7.42612L65.8636 7.37953L65.8403 7.21647L65.2579 7.42612ZM65.0716 7.496L64.9318 3.20988C65.0405 3.13223 65.157 3.03906 65.2812 2.93035C65.421 2.82165 65.5996 2.68188 65.817 2.51106C65.553 2.43341 65.32 2.36353 65.1182 2.30141C64.9318 2.23929 64.7532 2.18494 64.5824 2.13835C64.6134 2.0607 64.6212 1.99082 64.6057 1.9287C64.6057 1.86659 64.6212 1.82776 64.6523 1.81223C64.9629 1.71906 65.2502 1.67247 65.5142 1.67247C66.244 1.67247 66.8574 2.02188 67.3544 2.7207C67.3854 2.75176 67.4243 2.79059 67.4709 2.83717C67.5174 2.88376 67.5873 2.95365 67.6805 3.04682L68.8685 2.51106L67.9134 2.16165C67.9911 2.05294 68.0532 1.94423 68.0998 1.83553C68.1619 1.71129 68.2318 1.64141 68.3094 1.62588C68.853 1.5327 69.3965 1.44729 69.94 1.36965C70.4836 1.292 71.0271 1.24541 71.5706 1.22988C71.9433 1.21435 72.3083 1.26094 72.6654 1.36965C73.0226 1.47835 73.2944 1.69576 73.4807 2.02188L73.3643 3.65247L71.524 4.3047L67.401 3.39623C66.6245 5.60141 66.477 7.33294 66.9584 8.59082C66.6633 9.19647 66.4847 9.78659 66.4226 10.3612C66.3605 10.9358 66.3838 11.5026 66.4925 12.0616C66.6012 12.6207 66.7798 13.172 67.0283 13.7155C67.2767 14.2435 67.5485 14.7715 67.8436 15.2995C67.5951 15.5946 67.3544 15.8896 67.1214 16.1847C66.904 16.4642 66.6633 16.7593 66.3993 17.0699L64.6989 15.8586C64.4193 15.3151 64.2485 14.7948 64.1864 14.2979C64.1398 13.7854 64.1631 13.2962 64.2563 12.8304C64.365 12.3489 64.5358 11.8831 64.7687 11.4327C65.0172 10.9668 65.2967 10.5087 65.6073 10.0584C65.4365 9.91859 65.3123 9.83318 65.2346 9.80212C65.1725 9.77106 65.0949 9.74776 65.0017 9.73223C64.924 9.70118 64.8076 9.67012 64.6523 9.63906C64.7299 9.26635 64.7998 8.90918 64.8619 8.56753C64.9396 8.21035 65.0172 7.85318 65.0949 7.496H65.0716ZM65.7704 10.9901L65.7471 10.8969L65.6306 10.9668L65.7704 10.9901ZM62.3229 2.25482C62.3073 2.51882 62.2374 2.73623 62.1132 2.90706C62.0045 3.06235 61.8647 3.19435 61.6939 3.30306C61.5386 3.41176 61.3678 3.5127 61.1814 3.60588C61.0106 3.69906 60.8476 3.80776 60.6923 3.932L59.9236 3.1167L59.6673 3.81553C59.5276 3.87765 59.3878 3.9087 59.248 3.9087C59.1083 3.9087 58.9918 3.87765 58.8986 3.81553C58.8054 3.75341 58.7123 3.67576 58.6191 3.58259C58.5414 3.48941 58.4638 3.39623 58.3862 3.30306C58.3085 3.20988 58.2231 3.13223 58.1299 3.07012C58.0057 2.57317 58.0523 2.18494 58.2697 1.90541C58.5026 1.62588 58.7977 1.37741 59.1549 1.16C59.5276 1.25318 59.9158 1.29976 60.3196 1.29976C60.7233 1.29976 61.1271 1.30753 61.5309 1.32306C61.9346 1.33859 62.3462 1.38517 62.7654 1.46282C63.2003 1.52494 63.6273 1.67247 64.0466 1.90541L62.3229 2.25482ZM76.2937 12.7139C76.3092 12.6984 76.317 12.6828 76.317 12.6673C76.317 12.6518 76.3248 12.6362 76.3403 12.6207C76.2471 12.6828 76.185 12.7216 76.1539 12.7372C76.216 12.7993 76.2626 12.8381 76.2937 12.8536C76.3248 12.8381 76.3636 12.8071 76.4102 12.7605C76.3946 12.7605 76.3558 12.7449 76.2937 12.7139ZM80.3935 5.00353V5.02682V5.00353ZM77.272 15.416C77.272 15.4781 77.2643 15.5402 77.2488 15.6024C77.2488 15.6489 77.2488 15.6955 77.2488 15.7421H77.1789V15.416H77.272ZM77.2022 10.0118L77.3652 10.1748L77.3419 10.1981C77.3109 10.1671 77.2876 10.1438 77.272 10.1282C77.2565 10.0972 77.2332 10.0661 77.2022 10.0351V10.0118L76.6431 9.75553C76.7208 9.97294 76.8062 10.1205 76.8993 10.1981C76.9925 10.2602 77.14 10.3456 77.3419 10.4544L77.3652 10.2214V10.1748V10.2214C77.4273 10.2835 77.4817 10.3456 77.5283 10.4078C77.5904 10.4544 77.637 10.5087 77.668 10.5708C77.7302 10.664 77.7768 10.7649 77.8078 10.8736C77.8544 10.9668 77.901 11.0678 77.9476 11.1765L78.2271 11.06C78.2737 11.2774 78.3591 11.4715 78.4833 11.6424C78.6076 11.7976 78.7396 11.9529 78.8793 12.1082C79.0191 12.248 79.1666 12.3878 79.3219 12.5275C79.4772 12.6673 79.6092 12.8226 79.7179 12.9934C79.9353 13.3195 80.176 13.5913 80.44 13.8087C80.704 14.0106 81.0146 14.1736 81.3718 14.2979C81.4495 14.3289 81.5193 14.3755 81.5815 14.4376C81.6436 14.4842 81.7135 14.5386 81.7911 14.6007C81.9775 14.756 82.1405 14.9268 82.2803 15.1132C82.42 15.2995 82.4511 15.5092 82.3735 15.7421C82.2958 16.0061 82.1871 16.2701 82.0473 16.5341C81.9076 16.7981 81.6513 16.9456 81.2786 16.9767C81.1699 17.0078 81.069 17.0311 80.9758 17.0466C80.8826 17.0621 80.7972 17.0699 80.7196 17.0699C80.5177 17.0699 80.3546 17.0311 80.2304 16.9534C80.1217 16.8602 80.0363 16.7593 79.9742 16.6506C79.912 16.5264 79.8577 16.3944 79.8111 16.2546C79.7645 16.1148 79.7024 15.9984 79.6248 15.9052C79.1433 15.6101 78.6852 15.2762 78.2504 14.9035C77.8311 14.5308 77.4584 14.1038 77.1323 13.6224C77.008 13.4515 76.876 13.3118 76.7363 13.2031C76.5965 13.0944 76.449 12.9779 76.2937 12.8536C76.0142 13.04 75.8278 13.1642 75.7346 13.2264C75.657 13.2729 75.6104 13.2962 75.5949 13.2962C75.5793 13.2807 75.5716 13.2729 75.5716 13.2729C75.5716 13.2574 75.5871 13.2264 75.6182 13.1798C75.6492 13.1332 75.8278 12.9856 76.1539 12.7372C76.0608 12.6751 75.9831 12.6129 75.921 12.5508L75.2455 11.3861C75.1989 11.3395 75.1445 11.3162 75.0824 11.3162C75.0203 11.3007 74.9504 11.2852 74.8728 11.2696C74.8106 11.2541 74.7485 11.2308 74.6864 11.1998C74.6243 11.1687 74.5855 11.1066 74.5699 11.0134H74.5932L73.7779 9.84871C73.6226 9.25859 73.545 8.7927 73.545 8.45106C73.5605 8.10941 73.5993 7.83765 73.6615 7.63576C73.7391 7.41835 73.8245 7.23976 73.9177 7.1C74.0109 6.96023 74.0652 6.79718 74.0808 6.61082C74.3913 6.62635 74.6553 6.57976 74.8728 6.47106C75.0902 6.34682 75.292 6.19929 75.4784 6.02847C75.6648 5.84212 75.8433 5.65576 76.0142 5.46941C76.185 5.26753 76.3713 5.0967 76.5732 4.95694L76.2005 4.724L76.7363 4.67741C76.7673 4.49106 76.876 4.38235 77.0624 4.35129V4.37459L77.5283 4.09506L78.2504 2.86047L78.5299 3.25647L78.8095 2.16165L78.9259 2.744L79.1822 2.41788H79.1589C79.1744 2.16941 79.3142 2.084 79.5782 2.16165L79.6946 1.76565L79.881 1.99859C80.0829 1.87435 80.2615 1.72682 80.4168 1.556C80.572 1.36965 80.7273 1.19106 80.8826 1.02023C81.0379 0.833881 81.201 0.663058 81.3718 0.507764C81.5426 0.352469 81.7445 0.228233 81.9775 0.135057C82.1172 0.181646 82.2492 0.282587 82.3735 0.437881C82.4977 0.593175 82.6064 0.779528 82.6996 0.996939C82.8083 1.19882 82.9015 1.40847 82.9791 1.62588C83.0568 1.84329 83.1111 2.02965 83.1422 2.18494C82.5365 3.10118 81.9619 3.63694 81.4184 3.79223L81.0224 4.39788C80.9913 4.49106 80.9603 4.55318 80.9292 4.58423C80.8516 4.66188 80.7662 4.73176 80.673 4.79388C80.5798 4.856 80.4866 4.92588 80.3935 5.00353L80.44 5.05012L80.6497 5.12L80.5798 5.21317C80.5488 5.18212 80.5255 5.15882 80.5099 5.14329C80.4944 5.11223 80.4711 5.08118 80.44 5.05012L80.3935 5.02682V5.00353C80.176 5.0967 79.9742 5.21318 79.7878 5.35294C79.617 5.47718 79.4539 5.64023 79.2986 5.84212C79.2055 5.96635 79.089 6.06729 78.9492 6.14494C78.825 6.22259 78.7008 6.30023 78.5765 6.37788L78.3203 6.91365H77.9942C77.8699 7.1 77.7612 7.24753 77.668 7.35623C77.5749 7.44941 77.4351 7.55812 77.2488 7.68235L77.3186 7.84541L78.7396 7.72894C78.8638 7.71341 78.9803 7.69788 79.089 7.68235C79.1977 7.65129 79.3064 7.65129 79.4151 7.68235C79.7723 7.80659 80.1217 7.85318 80.4633 7.82212C80.805 7.77553 81.1544 7.76 81.5116 7.77553C81.76 7.79106 82.0085 7.80659 82.257 7.82212C82.5055 7.83765 82.7539 7.86094 83.0024 7.892C83.3751 7.92306 83.6236 8.024 83.7478 8.19482C83.8876 8.35012 83.9342 8.60635 83.8876 8.96353C83.872 9.04118 83.8488 9.16541 83.8177 9.33623C83.7866 9.50706 83.7556 9.63129 83.7245 9.70894C83.0723 9.87976 82.42 9.94188 81.7678 9.89529C81.1311 9.83318 80.4789 9.82541 79.8111 9.872C79.5937 9.76329 79.384 9.69341 79.1822 9.66235C78.9803 9.61576 78.7706 9.59247 78.5532 9.59247C78.3358 9.59247 78.1106 9.61576 77.8777 9.66235C77.6448 9.69341 77.4196 9.73223 77.2022 9.77882V10.0118ZM79.5316 7.35623C79.5626 7.26306 79.5859 7.17765 79.6015 7.1C79.617 7.00682 79.6403 6.92141 79.6713 6.84376H79.7645C79.749 6.93694 79.7335 7.03012 79.7179 7.12329C79.7179 7.20094 79.7179 7.27859 79.7179 7.35623H79.5316ZM80.2537 5.4927H80.2071C80.176 5.53929 80.1217 5.60141 80.044 5.67906L79.9742 5.58588C80.0673 5.55482 80.145 5.52376 80.2071 5.4927H80.2537ZM76.6897 16.9534C76.6742 16.9845 76.6586 17.0078 76.6431 17.0233C76.6276 17.0388 76.6353 17.0311 76.6664 17C76.6509 17.0311 76.6431 17.0311 76.6431 17C76.6586 16.9845 76.6664 16.9612 76.6664 16.9301L76.6897 16.9534ZM75.2688 17.7687C75.2688 17.7376 75.261 17.7221 75.2455 17.7221C75.2455 17.7221 75.2455 17.7144 75.2455 17.6988L75.2688 17.6755C75.2688 17.6755 75.2765 17.6755 75.292 17.6755C75.292 17.7066 75.2843 17.7376 75.2688 17.7687ZM78.5765 6.37788C78.6076 6.40894 78.6231 6.43223 78.6231 6.44776C78.6386 6.44776 78.6309 6.43223 78.5998 6.40118C78.6464 6.4167 78.6542 6.42447 78.6231 6.42447C78.6076 6.40894 78.5843 6.40118 78.5532 6.40118L78.5765 6.37788ZM79.4151 6.89035C79.4151 6.87482 79.4073 6.86706 79.3918 6.86706C79.3918 6.86706 79.384 6.86706 79.3685 6.86706C79.3685 6.85153 79.3685 6.84376 79.3685 6.84376C79.384 6.82823 79.3918 6.81271 79.3918 6.79718C79.4229 6.81271 79.4384 6.82047 79.4384 6.82047C79.4384 6.85153 79.4306 6.87482 79.4151 6.89035ZM77.6913 9.94188V9.98847C77.6913 10.004 77.6758 10.0118 77.6448 10.0118C77.6292 9.99623 77.6215 9.9807 77.6215 9.96518C77.637 9.96518 77.6448 9.96518 77.6448 9.96518C77.6603 9.94965 77.6758 9.94188 77.6913 9.94188ZM76.6897 13.4593C76.6586 13.4904 76.6431 13.5059 76.6431 13.5059C76.6276 13.4904 76.6198 13.4748 76.6198 13.4593C76.6198 13.4282 76.6353 13.4127 76.6664 13.4127C76.6664 13.4282 76.6742 13.4438 76.6897 13.4593ZM74.9659 11.5958H74.9892C75.0048 11.5958 75.0125 11.6035 75.0125 11.6191C75.0125 11.6346 75.0048 11.6424 74.9892 11.6424C74.9892 11.6424 74.9892 11.6501 74.9892 11.6656C74.9582 11.6656 74.9426 11.6579 74.9426 11.6424C74.9426 11.6268 74.9504 11.6113 74.9659 11.5958ZM76.4102 13.9019L76.4568 13.8553C76.4568 13.8708 76.449 13.8864 76.4335 13.9019C76.4335 13.9019 76.4335 13.9096 76.4335 13.9252L76.4102 13.9019ZM76.4335 13.9252C76.4179 13.9252 76.4024 13.9329 76.3869 13.9485C76.3869 13.9485 76.3791 13.9485 76.3636 13.9485C76.3636 13.9485 76.3791 13.9329 76.4102 13.9019L76.4335 13.9252ZM78.5765 10.0351C78.592 10.0351 78.5998 10.0428 78.5998 10.0584C78.5998 10.0584 78.6076 10.0584 78.6231 10.0584C78.592 10.0584 78.5765 10.0506 78.5765 10.0351ZM78.5765 10.0351L78.5299 9.98847C78.561 10.0195 78.5765 10.0351 78.5765 10.0351ZM76.6664 16.9301C76.6975 16.9301 76.713 16.9301 76.713 16.9301C76.7285 16.9146 76.7285 16.9068 76.713 16.9068C76.713 16.9224 76.7052 16.9379 76.6897 16.9534L76.6664 16.9301ZM80.2304 5.46941L80.277 5.42282V5.44612C80.277 5.46165 80.2692 5.47718 80.2537 5.4927L80.2304 5.46941ZM95.745 8.24141C95.5276 8.16376 95.3412 8.10165 95.1859 8.05506C95.0307 7.99294 94.8598 7.93082 94.6735 7.8687L94.8831 9.10329L95.4189 9.01012L96.5137 14.7871C96.405 15.1132 96.2885 15.4626 96.1643 15.8353C96.0556 16.1925 95.9391 16.5807 95.8149 17C95.5354 16.9068 95.2791 16.8292 95.0462 16.7671C94.8288 16.6894 94.6114 16.5962 94.3939 16.4875C93.7262 16.1769 93.2991 15.8198 93.1128 15.416C92.9264 15.0122 92.9264 14.4532 93.1128 13.7388C93.1749 13.5214 93.2292 13.3118 93.2758 13.1099C93.3224 12.908 93.3535 12.6984 93.369 12.4809C93.4001 12.2014 93.4156 11.9141 93.4156 11.6191C93.4156 11.324 93.4234 11.0056 93.4389 10.664C93.0972 10.7727 92.7478 10.8271 92.3906 10.8271C91.6452 10.8271 90.9619 10.5631 90.3408 10.0351C89.8904 10.004 89.4401 9.9807 88.9897 9.96518C88.5394 9.93412 88.0812 9.90306 87.6154 9.872L86.4041 10.9901L87.6386 16.4642C87.297 16.4798 86.9709 16.4565 86.6603 16.3944C86.3652 16.3167 86.0857 16.2158 85.8217 16.0915C85.5577 15.9518 85.3015 15.8042 85.053 15.6489C84.8045 15.4781 84.5483 15.3151 84.2843 15.1598C84.2998 14.9424 84.3386 14.7405 84.4008 14.5541C84.4629 14.3522 84.525 14.1504 84.5871 13.9485C84.6492 13.7466 84.6881 13.5447 84.7036 13.3428C84.7346 13.1409 84.7114 12.9313 84.6337 12.7139C84.6026 12.6052 84.6259 12.4732 84.7036 12.3179C84.7812 12.1626 84.8511 12.0228 84.9132 11.8986C85.0219 11.6812 85.1306 11.4638 85.2394 11.2464C85.3481 11.0289 85.4645 10.8115 85.5888 10.5941L84.6803 9.66235L85.0064 7.77553L86.1944 6.96023L85.5888 6.00518L85.2161 6.79718C85.1695 6.75059 85.1229 6.71176 85.0763 6.6807C85.0297 6.64965 85.0064 6.61859 85.0064 6.58753C84.9443 6.23035 84.8899 5.87318 84.8434 5.516C84.8123 5.15882 84.7579 4.80165 84.6803 4.44447C84.6182 4.14941 84.5483 3.85435 84.4706 3.55929C84.4085 3.26423 84.3697 2.96918 84.3542 2.67412C84.3386 2.37906 84.3619 2.084 84.4241 1.78894C84.4862 1.47835 84.6182 1.17553 84.8201 0.880469L86.1478 0.694116L87.4756 2.76729L86.7535 7.03012L93.9514 7.8687C93.9669 7.496 93.9824 7.12329 93.9979 6.75059C94.029 6.37788 94.0368 6.00518 94.0212 5.63247C94.0057 5.30635 93.9902 4.97247 93.9746 4.63082C93.9591 4.28918 93.897 3.96306 93.7883 3.65247C93.633 3.09341 93.6485 2.62753 93.8349 2.25482C94.0368 1.86659 94.3085 1.47835 94.6502 1.09012C95.2403 1.36965 95.613 1.74235 95.7683 2.20823C95.9236 2.65859 95.9469 3.10118 95.8382 3.536C95.6363 4.31247 95.5509 5.08118 95.5819 5.84212C95.613 6.60306 95.6674 7.40282 95.745 8.24141ZM98.9194 16.3944C99.1523 16.2235 99.2688 16.1071 99.2688 16.0449C99.2843 15.9673 99.1911 15.8275 98.9893 15.6256L98.9194 16.3944ZM99.8744 4.09506L99.8511 4.07176L99.8046 4.11835C99.8201 4.10282 99.8434 4.09506 99.8744 4.09506ZM94.0742 8.84706L94.1208 8.82376L94.0975 8.96353C94.113 9.0567 94.1286 9.14988 94.1441 9.24306C94.1596 9.33623 94.1829 9.42941 94.214 9.52259C94.1674 9.53812 94.0897 9.54588 93.981 9.54588L94.0975 8.96353L94.0742 8.84706ZM99.8046 4.11835L99.8511 4.07176L98.9427 3.97859C98.9116 4.10282 98.8728 4.196 98.8262 4.25812C98.7951 4.3047 98.7796 4.35906 98.7796 4.42118C98.7796 4.76282 98.8107 5.11223 98.8728 5.46941C98.9504 5.81106 99.0126 6.1527 99.0591 6.49435C99.1213 6.836 99.1523 7.18541 99.1523 7.54259C99.1678 7.88423 99.1135 8.23365 98.9893 8.59082C98.8806 8.90141 98.834 9.21976 98.8495 9.54588C98.865 9.872 98.8883 10.1981 98.9194 10.5242C98.966 10.8504 98.9893 11.1765 98.9893 11.5026C99.0048 11.8132 98.9427 12.1315 98.8029 12.4576C98.7563 12.5819 98.7796 12.7527 98.8728 12.9701C98.9815 13.172 99.098 13.3351 99.2222 13.4593C99.5328 13.8165 99.8434 14.1659 100.154 14.5075C100.48 14.8336 100.822 15.1753 101.179 15.5325L99.2688 16.9767L98.8961 16.4875C98.7874 16.4565 98.6476 16.3711 98.4768 16.2313C98.306 16.076 98.1429 15.8974 97.9876 15.6955C97.8323 15.4936 97.6926 15.2918 97.5683 15.0899C97.4596 14.888 97.3975 14.7094 97.382 14.5541C97.3509 14.1504 97.3276 13.7621 97.3121 13.3894C97.2966 13.0012 97.2733 12.6052 97.2422 12.2014C97.1801 11.2231 97.1257 10.2525 97.0791 9.28965C97.0481 8.32682 96.9937 7.35623 96.9161 6.37788C96.9006 6.03623 96.854 5.70235 96.7763 5.37623C96.7142 5.05012 96.6676 4.71623 96.6366 4.37459C96.59 4.04847 96.5589 3.73012 96.5434 3.41953C96.5434 3.10894 96.5822 2.81388 96.6598 2.53435C96.7375 2.25482 96.8695 1.99082 97.0558 1.74235C97.2577 1.49388 97.5373 1.27647 97.8944 1.09012C98.1584 1.1367 98.4147 1.16 98.6631 1.16C99.1135 1.16 99.5561 1.12894 99.9909 1.06682C100.441 0.989175 100.892 0.950352 101.342 0.950352C101.715 0.950352 102.087 0.99694 102.46 1.09012C102.848 1.18329 103.221 1.36965 103.578 1.64917C103.827 1.57153 104.067 1.50941 104.3 1.46282C104.549 1.4007 104.789 1.36965 105.022 1.36965C105.349 1.36965 105.667 1.43176 105.977 1.556C106.288 1.6647 106.591 1.85882 106.886 2.13835C107.01 2.24706 107.189 2.29365 107.422 2.27812C107.67 2.26259 107.934 2.27035 108.214 2.30141L108.423 3.81553C108.113 3.92423 107.825 4.02518 107.561 4.11835C107.297 4.196 107.033 4.27365 106.769 4.35129L106.816 4.328C106.599 4.29694 106.381 4.26588 106.164 4.23482C105.962 4.20376 105.752 4.196 105.535 4.21153C105.209 4.24259 104.875 4.28917 104.533 4.35129C104.192 4.41341 103.796 4.48329 103.345 4.56094L103.671 3.76894C103.252 3.73788 102.825 3.70682 102.39 3.67576C101.971 3.6447 101.544 3.6447 101.109 3.67576C100.892 3.69129 100.682 3.74565 100.48 3.83882C100.278 3.932 100.076 4.01741 99.8744 4.09506L100.037 4.16494C100.224 4.196 100.402 4.23482 100.573 4.28141C100.76 4.31247 100.938 4.34353 101.109 4.37459L101.039 4.58423C100.868 4.50659 100.697 4.4367 100.527 4.37459C100.371 4.31247 100.208 4.24259 100.037 4.16494L99.8046 4.11835ZM103.229 11.9685C102.903 11.7355 102.646 11.5492 102.46 11.4094C102.289 11.2696 102.149 11.1376 102.041 11.0134C101.932 10.8892 101.847 10.7494 101.785 10.5941C101.722 10.4233 101.645 10.1981 101.552 9.91859L102.344 8.31129C102.747 8.18706 103.097 8.12494 103.392 8.12494C103.873 8.12494 104.285 8.24141 104.626 8.47435C104.968 8.70729 105.217 9.04894 105.372 9.49929C105.527 9.94965 105.418 10.4 105.046 10.8504C104.673 11.2852 104.067 11.6579 103.229 11.9685ZM99.2688 17.3028L99.9676 17.4426C99.9676 17.4736 99.9676 17.4969 99.9676 17.5125C99.9831 17.5435 99.9909 17.5746 99.9909 17.6056C99.8667 17.6212 99.7347 17.6289 99.5949 17.6289C99.4707 17.6445 99.3464 17.6522 99.2222 17.6522L99.2688 17.3028ZM103.555 17.7454L103.508 17.8619C103.415 17.7998 103.353 17.7454 103.322 17.6988C103.322 17.6988 103.345 17.66 103.392 17.5824L103.555 17.7454ZM104.254 17.9085C104.331 18.1104 104.386 18.2734 104.417 18.3976C104.463 18.5219 104.525 18.6849 104.603 18.8868C104.463 18.7936 104.355 18.7238 104.277 18.6772C104.199 18.6306 104.153 18.5918 104.137 18.5607C104.106 18.4831 104.106 18.3976 104.137 18.3045C104.184 18.2268 104.223 18.0948 104.254 17.9085ZM105.768 18.0715L105.698 18.4908L105.558 18.4442C105.574 18.3821 105.581 18.32 105.581 18.2579C105.597 18.1958 105.62 18.1259 105.651 18.0482L105.768 18.0715ZM105.814 16.9301H105.698L105.721 16.8369L105.814 16.9301ZM107.888 4.74729C107.934 4.73176 107.981 4.724 108.027 4.724C108.074 4.724 108.121 4.71623 108.167 4.70071L108.097 4.91035C108.066 4.87929 108.027 4.856 107.981 4.84047C107.95 4.80941 107.919 4.77835 107.888 4.74729ZM106.816 4.328V4.42118L106.769 4.35129L106.816 4.328ZM116.187 8.35788C116.358 8.14047 116.521 7.93082 116.677 7.72894C116.847 7.51153 117.042 7.27082 117.259 7.00682C116.793 6.61859 116.319 6.23812 115.838 5.86541C115.357 5.47718 114.86 5.12 114.347 4.79388C113.835 4.46776 113.291 4.18823 112.717 3.95529C112.158 3.70682 111.552 3.536 110.9 3.44282C110.915 4.00188 110.9 4.55318 110.853 5.0967C110.806 5.6247 110.768 6.1527 110.737 6.6807C110.721 7.19318 110.729 7.70565 110.76 8.21812C110.806 8.71506 110.915 9.20423 111.086 9.68565C110.962 9.85647 110.853 10.004 110.76 10.1282C110.682 10.2369 110.589 10.3612 110.48 10.5009C110.574 10.4854 110.729 10.4544 110.946 10.4078C111.179 10.3456 111.42 10.2835 111.668 10.2214C111.917 10.1593 112.15 10.0972 112.367 10.0351C112.585 9.97294 112.732 9.92635 112.81 9.89529C113.214 9.69341 113.617 9.49153 114.021 9.28965C114.425 9.08776 114.829 8.88588 115.232 8.684C115.388 8.60635 115.543 8.552 115.698 8.52094C115.854 8.47435 116.017 8.42 116.187 8.35788ZM113.555 5.39953C113.757 5.69459 113.951 5.97412 114.138 6.23812C114.324 6.50212 114.502 6.75835 114.673 7.00682C114.58 7.22423 114.456 7.40282 114.301 7.54259C114.161 7.66682 114.006 7.77553 113.835 7.8687C113.679 7.94635 113.516 8.03176 113.346 8.12494C113.175 8.20259 113.019 8.30353 112.88 8.42776C112.755 8.288 112.631 8.13271 112.507 7.96188C112.383 7.99294 112.243 8.024 112.088 8.05506C111.932 8.07059 111.769 8.09388 111.598 8.12494C111.521 8.03176 111.435 7.94635 111.342 7.8687C111.249 7.79106 111.187 7.70565 111.156 7.61247C111.109 7.48823 111.086 7.35623 111.086 7.21647C111.102 7.06118 111.102 6.92141 111.086 6.79718C111.412 6.64188 111.715 6.50988 111.994 6.40118C112.274 6.27694 112.507 6.07506 112.693 5.79553C112.755 5.68682 112.872 5.61694 113.043 5.58588C113.214 5.53929 113.384 5.47718 113.555 5.39953ZM106.87 12.644C107.258 12.4421 107.615 12.2558 107.941 12.0849C108.267 11.8986 108.609 11.7045 108.966 11.5026C108.982 11.1609 108.997 10.8038 109.013 10.4311C109.044 10.0428 109.059 9.64682 109.059 9.24306C109.044 8.07835 109.036 6.92918 109.036 5.79553C109.036 4.66188 108.958 3.52047 108.803 2.37129C108.757 2.01412 108.78 1.68023 108.873 1.36965C108.966 1.04353 109.207 0.748469 109.595 0.484469C110.372 0.934822 111.148 1.36188 111.925 1.76565C112.701 2.16941 113.493 2.56541 114.301 2.95365C114.518 3.06235 114.728 3.17106 114.93 3.27976C115.131 3.37294 115.318 3.536 115.489 3.76894C115.659 4.03294 115.885 4.22706 116.164 4.35129C116.459 4.46 116.762 4.53765 117.073 4.58423C117.538 4.66188 118.004 4.74729 118.47 4.84047C118.936 4.91812 119.379 5.08894 119.798 5.35294C120.062 5.50823 120.272 5.67129 120.427 5.84212C120.582 6.01294 120.66 6.25365 120.66 6.56423C120.66 6.64188 120.699 6.72729 120.776 6.82047C120.87 6.89812 120.955 6.99129 121.033 7.1C120.908 7.27082 120.776 7.44165 120.637 7.61247C120.497 7.78329 120.357 7.96188 120.217 8.14823C119.72 8.30353 119.231 8.45882 118.75 8.61412C118.268 8.75388 117.779 8.90918 117.282 9.08C117.065 9.15765 116.847 9.26635 116.63 9.40612C116.428 9.53035 116.218 9.64682 116.001 9.75553C115.722 9.91082 115.442 10.0195 115.162 10.0816C114.65 10.2059 114.161 10.3689 113.695 10.5708C113.229 10.7727 112.802 11.0988 112.414 11.5492C112.243 11.7666 112.002 11.9296 111.692 12.0384C111.381 12.1315 111.086 12.248 110.806 12.3878C110.853 12.9313 110.884 13.4671 110.9 13.9951C110.931 14.5075 110.985 15.0122 111.063 15.5092C111.094 15.7887 111.078 16.0372 111.016 16.2546C110.954 16.472 110.814 16.6739 110.597 16.8602C110.209 16.7826 109.898 16.6584 109.665 16.4875C109.432 16.3167 109.261 16.1071 109.153 15.8586C109.044 15.6101 108.982 15.3306 108.966 15.02C108.951 14.7094 108.951 14.3911 108.966 14.0649C108.702 14.096 108.446 14.1193 108.198 14.1348C107.965 14.1348 107.708 14.1426 107.429 14.1581L106.87 12.644ZM111.668 7.496L111.598 7.42612L111.831 7.58918L111.668 7.496ZM123.599 13.2962C123.817 13.0788 124.112 12.7915 124.484 12.4344C124.857 12.0616 125.261 11.6656 125.696 11.2464C126.146 10.8271 126.596 10.4 127.047 9.96518C127.513 9.53035 127.932 9.14212 128.305 8.80047C128.693 8.44329 129.011 8.156 129.26 7.93859C129.508 7.72118 129.648 7.61247 129.679 7.61247C129.694 7.61247 129.632 7.69012 129.493 7.84541C129.368 7.13106 129.283 6.47106 129.236 5.86541C129.19 5.35294 129.174 4.66965 129.19 3.81553C129.205 2.96141 129.298 2.44894 129.469 2.27812C129.578 2.16941 129.741 2.11506 129.958 2.11506C130.207 2.11506 130.479 2.15388 130.774 2.23153C131.084 2.30918 131.387 2.3247 131.682 2.27812C131.775 2.40235 131.845 2.65082 131.892 3.02353C131.954 3.3807 131.993 3.99412 132.008 4.86376C132.039 5.73341 132.055 6.46329 132.055 7.05341C132.055 7.628 132.047 8.19482 132.032 8.75388C132.032 9.29741 132.024 9.80212 132.008 10.268C131.993 10.7339 131.985 11.1066 131.985 11.3861C131.969 11.9452 132.016 12.5042 132.125 13.0633C132.233 13.6224 132.319 14.1814 132.381 14.7405C132.412 14.9889 132.412 15.2374 132.381 15.4859C132.35 15.7188 132.327 15.9595 132.311 16.208L131.146 16.7438C130.805 16.5264 130.549 16.2313 130.378 15.8586C130.207 15.4859 130.106 15.0976 130.075 14.6939C130.044 14.2435 129.966 13.8009 129.842 13.3661C129.733 12.9158 129.71 12.4654 129.772 12.0151C129.803 11.7821 129.772 11.5569 129.679 11.3395C129.601 11.1221 129.407 10.9746 129.097 10.8969C128.708 11.4249 128.312 11.9374 127.909 12.4344C127.505 12.9313 127.047 13.3816 126.534 13.7854C126.363 13.9252 126.177 14.0494 125.975 14.1581C125.773 14.2668 125.579 14.3833 125.393 14.5075L125.276 14.3678L123.366 16.6506L122.038 17C121.774 16.8913 121.596 16.7438 121.503 16.5574C121.409 16.3711 121.347 16.1692 121.316 15.9518C121.301 15.7344 121.301 15.5092 121.316 15.2762C121.332 15.0433 121.316 14.8259 121.27 14.624L121.013 14.5774L121.06 14.2513C121.06 14.0339 121.052 13.8242 121.037 13.6224C121.037 13.4049 121.029 13.1875 121.013 12.9701C121.013 12.6906 121.006 12.4111 120.99 12.1315C120.99 11.852 120.99 11.5725 120.99 11.2929C121.006 10.796 121.006 10.2991 120.99 9.80212C120.975 9.30518 120.897 8.80823 120.757 8.31129C120.68 8.07835 120.649 7.82212 120.664 7.54259C120.68 7.26306 120.703 6.99129 120.734 6.72729C120.812 6.18376 120.858 5.64023 120.874 5.0967C120.905 4.55318 120.866 4.00965 120.757 3.46612C120.695 3.15553 120.695 2.8527 120.757 2.55765C120.819 2.24706 120.975 1.96753 121.223 1.71906C121.332 1.70353 121.425 1.69576 121.503 1.69576C121.596 1.68023 121.681 1.67247 121.759 1.67247C122.038 1.67247 122.264 1.75012 122.434 1.90541C122.621 2.0607 122.823 2.34023 123.04 2.744C122.885 2.97694 122.792 3.21765 122.761 3.46612C122.729 3.71459 122.722 3.97082 122.737 4.23482C122.753 4.48329 122.776 4.73953 122.807 5.00353C122.854 5.26753 122.869 5.53153 122.854 5.79553C122.854 5.91976 122.877 6.03623 122.924 6.14494C122.97 6.25365 123.017 6.36235 123.063 6.47106C123.125 6.57976 123.172 6.69623 123.203 6.82047C123.25 6.9447 123.257 7.0767 123.226 7.21647C123.149 7.72894 123.102 8.24141 123.087 8.75388C123.071 9.26635 123.056 9.77882 123.04 10.2913C123.025 10.5708 123.04 10.8504 123.087 11.1299C123.149 11.3939 123.226 11.6579 123.32 11.9219C123.382 12.1238 123.428 12.3334 123.459 12.5508C123.49 12.7682 123.537 13.0167 123.599 13.2962Z" fill="#522B15"/>
</svg>
